<svg width="38" height="38" viewBox="0 0 38 38" fill="none" xmlns="http://www.w3.org/2000/svg">
<path d="M30.7423 4.91665C28.9969 3.33734 26.9576 2.11726 24.7407 1.32608C22.5239 0.534901 20.1729 0.188111 17.822 0.305512C15.4711 0.422912 13.1664 1.0022 11.0394 2.01031C8.91237 3.01842 7.00475 4.43561 5.42544 6.18095L18.716 18.2072L30.7423 4.91665Z" fill="#4AD295"/>
<path d="M11.959 18.8629L18.704 25.1242L36.4668 5.6416" stroke="white" stroke-width="3.22471"/>
<path d="M36.7897 2.9541L35.043 4.80831L37.0584 7.09248L37.6496 6.71626L36.7897 2.9541Z" fill="white"/>
<path fill-rule="evenodd" clip-rule="evenodd" d="M0.263588 16.2005C0.711695 13.6166 1.99332 10.8905 3.49334 8.73926L5.76163 10.7824C4.52077 12.562 3.68554 14.5921 3.31485 16.7297C2.94417 18.8672 3.04706 21.0601 3.61628 23.1535C4.18549 25.2469 5.20716 27.19 6.6092 28.8455C8.01124 30.501 9.75949 31.8287 11.7306 32.7349C13.7017 33.6411 15.8477 34.1037 18.0171 34.0901C20.1865 34.0765 22.3265 33.5869 24.2861 32.6561C26.2457 31.7252 27.9771 30.3757 29.3582 28.7027C30.2018 27.6809 30.9021 26.5536 31.4432 25.3523L34.467 26.1625C33.7891 27.7879 32.8735 29.3089 31.7464 30.6742C30.0768 32.6966 27.9837 34.328 25.6148 35.4533C23.246 36.5786 20.659 37.1704 18.0365 37.1868C15.414 37.2033 12.8199 36.6441 10.4371 35.5486C8.05426 34.4532 5.94087 32.8482 4.246 30.8469C2.55113 28.8456 1.31607 26.4967 0.62797 23.966C-0.0601329 21.4354 -0.184519 18.7845 0.263588 16.2005Z" fill="#4AD295"/>
</svg>
