<svg width="133" height="64" viewBox="0 0 133 64" fill="none" xmlns="http://www.w3.org/2000/svg">
<path d="M51.8074 9.61888C48.8662 6.95741 45.4295 4.90132 41.6936 3.56802C37.9577 2.23471 33.9958 1.6503 30.0341 1.84814C26.0724 2.04599 22.1884 3.02221 18.6039 4.72109C15.0195 6.41996 11.8048 8.80821 9.14329 11.7495L31.5407 32.0163L51.8074 9.61888Z" fill="#4AD295"/>
<path d="M20.1553 33.122L31.522 43.6736L61.456 10.8413" stroke="white" stroke-width="5.43431"/>
<path d="M61.9992 6.31201L59.0557 9.43674L62.4521 13.286L63.4484 12.652L61.9992 6.31201Z" fill="white"/>
<path d="M84.2299 38.6749C82.2092 38.6749 80.4553 38.2836 78.9684 37.5008C77.5005 36.6974 76.3567 35.5953 75.5369 34.1945C74.7363 32.7731 74.3359 31.1355 74.3359 29.2815C74.3359 27.4481 74.6314 25.7384 75.2224 24.1522C75.8324 22.566 76.6903 21.1961 77.796 20.0426C78.9017 18.8684 80.2266 17.9517 81.7707 17.2925C83.3149 16.6333 85.0306 16.3037 86.9179 16.3037C88.8243 16.3037 90.4733 16.6333 91.8649 17.2925C93.2756 17.9311 94.4099 18.8581 95.2677 20.0734L91.9507 22.978C91.2835 22.1128 90.5209 21.4948 89.663 21.124C88.8243 20.7532 87.8425 20.5678 86.7177 20.5678C85.5358 20.5678 84.4682 20.7841 83.515 21.2167C82.5809 21.6287 81.7803 22.2158 81.113 22.978C80.4458 23.7402 79.9311 24.6363 79.5689 25.6663C79.2067 26.6756 79.0256 27.7777 79.0256 28.9725C79.0256 30.0643 79.2448 31.0222 79.6833 31.8462C80.1217 32.6495 80.7699 33.2778 81.6278 33.731C82.5047 34.1842 83.5722 34.4108 84.8304 34.4108C85.7836 34.4108 86.6987 34.2357 87.5756 33.8855C88.4525 33.5353 89.3008 32.9894 90.1206 32.2479L91.8935 36.0485C90.8831 36.8931 89.7107 37.542 88.3763 37.9952C87.0609 38.4484 85.6788 38.6749 84.2299 38.6749ZM87.8329 35.276L89.3199 27.1494H93.552L91.8935 36.0485L87.8329 35.276Z" fill="white"/>
<path d="M101.487 38.3042L105.49 16.6745H110.151L106.148 38.3042H101.487Z" fill="white"/>
<path d="M116.589 38.3042L120.592 16.6745H125.253L121.993 34.2254H132.03L131.258 38.3042H116.589Z" fill="white"/>
<path d="M65.9131 4.56482L70.6681 0H76.1205L69.9073 4.56482H65.9131Z" fill="white"/>
<path d="M68.5542 50.0512C68.0696 50.0512 67.6507 49.9652 67.2975 49.7931C66.9488 49.6165 66.6794 49.3742 66.4892 49.0663C66.299 48.7538 66.2039 48.3938 66.2039 47.9862C66.2039 47.5832 66.2741 47.2073 66.4144 46.8586C66.5594 46.5099 66.7609 46.2087 67.019 45.9551C67.2817 45.697 67.5919 45.4955 67.9496 45.3506C68.3119 45.2056 68.715 45.1332 69.1588 45.1332C69.5845 45.1332 69.9603 45.2056 70.2864 45.3506C70.6124 45.4955 70.8593 45.7038 71.0268 45.9755L70.232 46.6276C70.1098 46.4465 69.9535 46.3084 69.7633 46.2133C69.5731 46.1182 69.3467 46.0706 69.084 46.0706C68.8169 46.0706 68.5746 46.1182 68.3572 46.2133C68.1398 46.3038 67.9519 46.4352 67.7934 46.6072C67.6394 46.7748 67.5217 46.9718 67.4402 47.1982C67.3586 47.4247 67.3179 47.6647 67.3179 47.9183C67.3179 48.1583 67.37 48.3689 67.4741 48.55C67.5783 48.7266 67.73 48.8648 67.9293 48.9644C68.1285 49.064 68.3685 49.1138 68.6493 49.1138C68.8938 49.1138 69.1225 49.0708 69.3354 48.9848C69.5482 48.8942 69.7407 48.7538 69.9128 48.5636L70.5649 49.2293C70.3158 49.5191 70.0192 49.7297 69.675 49.861C69.3354 49.9878 68.9618 50.0512 68.5542 50.0512ZM76.7991 50.0512C76.319 50.0512 75.9047 49.9652 75.556 49.7931C75.2118 49.6165 74.9469 49.3742 74.7612 49.0663C74.5755 48.7538 74.4827 48.3938 74.4827 47.9862C74.4827 47.5786 74.5529 47.2028 74.6933 46.8586C74.8337 46.5099 75.0329 46.2087 75.291 45.9551C75.5537 45.697 75.8639 45.4955 76.2217 45.3506C76.584 45.2056 76.9847 45.1332 77.424 45.1332C77.904 45.1332 78.3161 45.2215 78.6603 45.3981C79.009 45.5702 79.2762 45.8125 79.4619 46.125C79.6475 46.4329 79.7404 46.7907 79.7404 47.1982C79.7404 47.6058 79.6702 47.9839 79.5298 48.3326C79.3894 48.6768 79.1879 48.978 78.9252 49.2361C78.6671 49.4897 78.3569 49.689 77.9946 49.8339C77.6369 49.9788 77.2383 50.0512 76.7991 50.0512ZM76.8942 49.1138C77.1614 49.1138 77.4014 49.0663 77.6142 48.9712C77.8316 48.8715 78.015 48.7357 78.1644 48.5636C78.3139 48.3915 78.4271 48.1945 78.5041 47.9726C78.5856 47.7462 78.6264 47.5084 78.6264 47.2594C78.6264 47.0239 78.5765 46.8178 78.4769 46.6412C78.3773 46.4601 78.2301 46.3197 78.0354 46.2201C77.8452 46.1204 77.6097 46.0706 77.3289 46.0706C77.0617 46.0706 76.8217 46.1204 76.6089 46.2201C76.396 46.3152 76.2126 46.4487 76.0586 46.6208C75.9092 46.7929 75.7937 46.9922 75.7122 47.2186C75.6352 47.4405 75.5967 47.676 75.5967 47.9251C75.5967 48.1606 75.6465 48.3689 75.7462 48.55C75.8503 48.7266 75.9975 48.8648 76.1877 48.9644C76.3824 49.064 76.6179 49.1138 76.8942 49.1138ZM83.4612 49.9697L84.4122 45.2147H85.3089L86.6606 48.584L86.1851 48.5772L88.8208 45.2147H89.765L88.8208 49.9697H87.7883L88.42 46.7839H88.6306L86.5316 49.4671H86.0425L84.9217 46.7771L85.1254 46.7974L84.4937 49.9697H83.4612ZM92.7204 49.9697L95.7908 45.2147H96.8845L98.0528 49.9697H96.9524L96.0286 45.7581H96.4633L93.8956 49.9697H92.7204ZM93.9907 48.9508L94.439 48.1153H96.8913L97.0203 48.9508H93.9907ZM101.943 49.9697L102.894 45.2147H103.804L105.849 48.6587L105.489 48.6383L106.168 45.2147H107.255L106.304 49.9697H105.4L103.349 46.5257L103.716 46.5461L103.029 49.9697H101.943ZM110.825 49.9697L111.776 45.2147H113.766C114.256 45.2147 114.674 45.2962 115.023 45.4592C115.376 45.6178 115.646 45.8464 115.831 46.1453C116.017 46.4397 116.11 46.7907 116.11 47.1982C116.11 47.6194 116.038 47.9998 115.893 48.3394C115.752 48.6791 115.551 48.9712 115.288 49.2157C115.025 49.4557 114.713 49.6414 114.351 49.7727C113.988 49.9041 113.588 49.9697 113.148 49.9697H110.825ZM112.109 49.0663H113.182C113.567 49.0663 113.893 48.987 114.16 48.8285C114.432 48.67 114.638 48.4549 114.779 48.1832C114.923 47.9115 114.996 47.6035 114.996 47.2594C114.996 47.0239 114.946 46.8224 114.846 46.6548C114.747 46.4827 114.595 46.3514 114.391 46.2608C114.192 46.1657 113.943 46.1182 113.644 46.1182H112.7L112.109 49.0663ZM119.142 49.9697L122.213 45.2147H123.306L124.475 49.9697H123.374L122.45 45.7581H122.885L120.318 49.9697H119.142ZM120.413 48.9508L120.861 48.1153H123.313L123.442 48.9508H120.413ZM130.022 50.0512C129.764 50.0512 129.513 50.0263 129.268 49.9765C129.028 49.9312 128.808 49.8678 128.609 49.7863C128.414 49.7048 128.249 49.6165 128.113 49.5214L128.562 48.6723C128.711 48.7764 128.869 48.867 129.037 48.944C129.209 49.0165 129.388 49.0731 129.574 49.1138C129.759 49.1501 129.945 49.1682 130.131 49.1682C130.334 49.1682 130.509 49.1455 130.654 49.1002C130.803 49.055 130.916 48.9916 130.993 48.91C131.075 48.8285 131.116 48.7289 131.116 48.6111C131.116 48.5025 131.073 48.4142 130.987 48.3462C130.901 48.2783 130.787 48.2217 130.647 48.1764C130.511 48.1266 130.359 48.079 130.192 48.0338C130.024 47.9885 129.854 47.9364 129.682 47.8775C129.515 47.8141 129.361 47.7371 129.22 47.6466C129.085 47.5515 128.974 47.4315 128.888 47.2865C128.802 47.1416 128.759 46.9605 128.759 46.7431C128.759 46.417 128.847 46.134 129.023 45.894C129.205 45.654 129.458 45.4683 129.784 45.337C130.11 45.2011 130.493 45.1332 130.932 45.1332C131.254 45.1332 131.557 45.1694 131.843 45.2419C132.128 45.3098 132.372 45.4094 132.576 45.5408L132.162 46.3831C131.981 46.2608 131.779 46.1702 131.557 46.1114C131.335 46.048 131.107 46.0163 130.871 46.0163C130.658 46.0163 130.475 46.0412 130.321 46.091C130.171 46.1408 130.056 46.211 129.974 46.3016C129.897 46.3876 129.859 46.4872 129.859 46.6005C129.859 46.7137 129.9 46.8065 129.981 46.879C130.067 46.9469 130.181 47.0058 130.321 47.0556C130.461 47.1009 130.615 47.1462 130.783 47.1914C130.95 47.2367 131.118 47.2888 131.285 47.3477C131.453 47.4065 131.607 47.4813 131.747 47.5718C131.888 47.6624 132.001 47.7779 132.087 47.9183C132.173 48.0541 132.216 48.2262 132.216 48.4345C132.216 48.7606 132.126 49.0459 131.944 49.2904C131.763 49.5305 131.507 49.7184 131.177 49.8542C130.851 49.9856 130.466 50.0512 130.022 50.0512Z" fill="#4AD295"/>
<path fill-rule="evenodd" clip-rule="evenodd" d="M53.2314 34.4789H63.0041L64.1624 40.1965H69.8654L65.0205 18.8467L60.7705 23.4535L62.0543 29.7904H55.4743L53.2314 34.4789Z" fill="white"/>
<path d="M55.0005 29.7817H62.2916V34.4915H50.5625L55.0005 29.7817Z" fill="white"/>
<path fill-rule="evenodd" clip-rule="evenodd" d="M0.444202 28.6329C1.19936 24.2784 3.35916 19.6843 5.88701 16.0591L9.70955 19.5023C7.61845 22.5012 6.2109 25.9224 5.58622 29.5246C4.96153 33.1268 5.13493 36.8222 6.09418 40.3501C7.05343 43.878 8.77516 47.1524 11.1379 49.9423C13.5006 52.7322 16.4468 54.9696 19.7685 56.4968C23.0903 58.0239 26.7067 58.8035 30.3626 58.7805C34.0185 58.7576 37.6248 57.9326 40.9271 56.3639C44.2294 54.7952 47.1473 52.521 49.4748 49.7016C50.896 47.98 52.076 46.0808 52.9878 44.0568L58.0835 45.4222C56.9411 48.1609 55.3984 50.7237 53.4993 53.0241C50.6857 56.4323 47.1584 59.1815 43.1664 61.0779C39.1743 62.9742 34.8148 63.9714 30.3953 63.9992C25.9759 64.0269 21.6042 63.0845 17.5886 61.2384C13.5731 59.3924 10.0116 56.6876 7.15539 53.315C4.29918 49.9424 2.21786 45.9841 1.05826 41.7194C-0.101336 37.4547 -0.310952 32.9875 0.444202 28.6329Z" fill="#4AD295"/>
</svg>
