<svg width="244" height="119" viewBox="0 0 244 119" fill="none" xmlns="http://www.w3.org/2000/svg">
<path d="M95.6005 17.7488C90.1727 12.8373 83.8307 9.04305 76.9365 6.58258C70.0424 4.1221 62.7311 3.04363 55.4202 3.40873C48.1092 3.77383 40.9418 5.57536 34.327 8.71045C27.7123 11.8455 21.7799 16.2528 16.8684 21.6806L58.2004 59.0807L95.6005 17.7488Z" fill="#4AD295"/>
<path d="M37.1895 61.1224L58.1656 80.5943L113.406 20.0059" stroke="#374957" stroke-width="10.0284"/>
<path d="M114.407 11.6489L108.975 17.4153L115.242 24.5187L117.081 23.3488L114.407 11.6489Z" fill="#374957"/>
<path d="M155.432 71.3696C151.703 71.3696 148.467 70.6474 145.723 69.2028C143.014 67.7203 140.903 65.6865 139.39 63.1015C137.913 60.4785 137.174 57.4564 137.174 54.035C137.174 50.6518 137.719 47.4966 138.81 44.5694C139.935 41.6423 141.519 39.1144 143.559 36.9856C145.599 34.8187 148.044 33.1271 150.894 31.9106C153.743 30.6942 156.91 30.0859 160.392 30.0859C163.91 30.0859 166.954 30.6942 169.522 31.9106C172.125 33.0891 174.218 34.7997 175.801 37.0426L169.68 42.4026C168.449 40.806 167.041 39.6656 165.458 38.9813C163.91 38.2971 162.099 37.9549 160.023 37.9549C157.842 37.9549 155.872 38.3541 154.113 39.1524C152.389 39.9127 150.912 40.9961 149.68 42.4026C148.449 43.8092 147.499 45.4628 146.831 47.3635C146.162 49.2262 145.828 51.26 145.828 53.4648C145.828 55.4796 146.233 57.2473 147.042 58.7679C147.851 60.2504 149.047 61.4099 150.63 62.2462C152.248 63.0825 154.218 63.5007 156.54 63.5007C158.299 63.5007 159.988 63.1775 161.606 62.5313C163.224 61.885 164.79 60.8777 166.303 59.5091L169.574 66.5228C167.71 68.0814 165.546 69.2789 163.084 70.1152C160.656 70.9515 158.106 71.3696 155.432 71.3696ZM162.081 65.0973L164.825 50.1006H172.635L169.574 66.5228L162.081 65.0973Z" fill="#374957"/>
<path d="M187.278 70.6854L194.666 30.7702H203.267L195.879 70.6854H187.278Z" fill="#374957"/>
<path d="M215.147 70.6854L222.535 30.7702H231.136L225.12 63.1585H243.642L242.218 70.6854H215.147Z" fill="#374957"/>
<path d="M121.63 8.42388L130.405 0H140.467L129.001 8.42388H121.63Z" fill="#374957"/>
<path d="M126.467 93.2414C125.581 93.2414 124.825 93.0868 124.198 92.7776C123.58 92.4684 123.104 92.038 122.769 91.4864C122.443 90.9265 122.28 90.2788 122.28 89.5434C122.28 88.8164 122.406 88.1353 122.657 87.5001C122.907 86.8566 123.267 86.2925 123.735 85.8078C124.211 85.3231 124.775 84.947 125.427 84.6796C126.087 84.4038 126.831 84.266 127.658 84.266C128.385 84.266 129.029 84.3829 129.589 84.6169C130.149 84.8509 130.579 85.1894 130.88 85.6323L129.977 86.4095C129.718 86.0752 129.388 85.8204 128.987 85.6449C128.586 85.4694 128.114 85.3816 127.57 85.3816C126.944 85.3816 126.38 85.4903 125.878 85.7075C125.385 85.9165 124.963 86.2131 124.612 86.5976C124.261 86.9736 123.994 87.4082 123.81 87.9013C123.626 88.3943 123.534 88.9166 123.534 89.4682C123.534 89.9947 123.647 90.4585 123.872 90.8596C124.106 91.2524 124.445 91.5616 124.888 91.7873C125.339 92.0129 125.895 92.1257 126.555 92.1257C127.09 92.1257 127.579 92.038 128.022 91.8625C128.473 91.687 128.87 91.4279 129.213 91.0853L129.94 91.9126C129.539 92.3556 129.037 92.6898 128.435 92.9155C127.834 93.1328 127.178 93.2414 126.467 93.2414ZM141.548 93.2414C140.679 93.2414 139.935 93.0868 139.316 92.7776C138.698 92.4684 138.226 92.038 137.9 91.4864C137.582 90.9265 137.423 90.2788 137.423 89.5434C137.423 88.8164 137.549 88.1353 137.8 87.5001C138.05 86.8566 138.41 86.2925 138.878 85.8078C139.346 85.3231 139.906 84.947 140.557 84.6796C141.209 84.4038 141.94 84.266 142.751 84.266C143.629 84.266 144.377 84.4206 144.995 84.7298C145.613 85.039 146.081 85.4735 146.399 86.0335C146.725 86.585 146.888 87.2285 146.888 87.9639C146.888 88.691 146.762 89.3763 146.512 90.0198C146.261 90.6549 145.902 91.2148 145.434 91.6995C144.966 92.1842 144.402 92.5645 143.741 92.8403C143.09 93.1077 142.358 93.2414 141.548 93.2414ZM141.66 92.1257C142.262 92.1257 142.81 92.0213 143.303 91.8123C143.796 91.5951 144.214 91.2984 144.556 90.9223C144.899 90.5379 145.162 90.0992 145.346 89.6061C145.53 89.113 145.622 88.5907 145.622 88.0391C145.622 87.5127 145.509 87.053 145.283 86.6602C145.058 86.2591 144.723 85.9457 144.28 85.7201C143.838 85.4944 143.294 85.3816 142.651 85.3816C142.041 85.3816 141.489 85.4903 140.996 85.7075C140.511 85.9165 140.094 86.2131 139.743 86.5976C139.4 86.9736 139.137 87.4082 138.953 87.9013C138.769 88.3943 138.677 88.9166 138.677 89.4682C138.677 89.9947 138.79 90.4585 139.015 90.8596C139.249 91.2524 139.584 91.5616 140.018 91.7873C140.461 92.0129 141.009 92.1257 141.66 92.1257ZM154.119 93.1411L155.874 84.3662H156.889L159.522 91.0101L158.983 90.9975L164.135 84.3662H165.213L163.458 93.1411H162.254L163.646 86.2215L163.959 86.2466L159.384 92.0756H158.807L156.438 86.2215L156.701 86.2591L155.322 93.1411H154.119ZM171.03 93.1411L176.772 84.3662H178.013L180.231 93.1411H178.99L177.035 85.0432H177.536L172.384 93.1411H171.03ZM173.161 90.9474L173.713 89.9446H178.639L178.815 90.9474H173.161ZM187.808 93.1411L189.563 84.3662H190.591L194.803 91.6118L194.427 91.5616L195.856 84.3662H197.109L195.355 93.1411H194.327L190.115 85.8956L190.491 85.9457L189.062 93.1411H187.808ZM204.249 93.1411L206.004 84.3662H209.438C210.324 84.3662 211.081 84.5167 211.707 84.8175C212.334 85.11 212.811 85.5237 213.136 86.0585C213.471 86.5934 213.638 87.2285 213.638 87.9639C213.638 88.7328 213.508 89.439 213.249 90.0824C212.99 90.7176 212.618 91.265 212.134 91.7246C211.657 92.1759 211.085 92.5269 210.416 92.7776C209.748 93.0199 209 93.1411 208.172 93.1411H204.249ZM205.715 92.0505H208.21C209.079 92.0505 209.823 91.8792 210.441 91.5366C211.06 91.1856 211.536 90.7092 211.87 90.1075C212.205 89.4974 212.372 88.808 212.372 88.0391C212.372 87.5127 212.259 87.0572 212.033 86.6728C211.808 86.28 211.465 85.9791 211.005 85.7702C210.554 85.5613 209.99 85.4568 209.313 85.4568H207.032L205.715 92.0505ZM219.422 93.1411L225.163 84.3662H226.404L228.623 93.1411H227.382L225.426 85.0432H225.928L220.776 93.1411H219.422ZM221.553 90.9474L222.104 89.9446H227.031L227.206 90.9474H221.553ZM238.907 93.2414C238.464 93.2414 238.03 93.1954 237.604 93.1035C237.186 93.0032 236.801 92.8737 236.45 92.7149C236.108 92.5561 235.832 92.3764 235.623 92.1759L236.175 91.173C236.4 91.3736 236.664 91.5491 236.964 91.6995C237.274 91.85 237.6 91.967 237.942 92.0505C238.293 92.1341 238.653 92.1759 239.02 92.1759C239.488 92.1759 239.902 92.1174 240.261 92.0004C240.621 91.8834 240.896 91.7162 241.089 91.499C241.289 91.2733 241.389 91.0017 241.389 90.6841C241.389 90.4251 241.306 90.212 241.139 90.0448C240.972 89.8777 240.754 89.744 240.487 89.6437C240.228 89.5351 239.935 89.439 239.609 89.3554C239.292 89.2635 238.97 89.1632 238.644 89.0545C238.327 88.9375 238.034 88.7955 237.767 88.6283C237.508 88.4612 237.294 88.2481 237.127 87.989C236.969 87.7216 236.889 87.3873 236.889 86.9862C236.889 86.4262 237.044 85.9457 237.353 85.5446C237.662 85.1351 238.088 84.8217 238.632 84.6044C239.183 84.3788 239.818 84.266 240.537 84.266C241.08 84.266 241.598 84.3286 242.091 84.454C242.584 84.5793 243.007 84.7632 243.358 85.0055L242.856 86.0335C242.53 85.7995 242.162 85.624 241.753 85.507C241.343 85.39 240.917 85.3315 240.474 85.3315C239.998 85.3315 239.584 85.3941 239.233 85.5195C238.882 85.6449 238.611 85.8245 238.419 86.0585C238.226 86.2842 238.126 86.5516 238.118 86.8608C238.118 87.1282 238.197 87.3455 238.356 87.5127C238.515 87.6798 238.728 87.8177 238.995 87.9263C239.263 88.035 239.555 88.1394 239.873 88.2397C240.199 88.3316 240.52 88.4319 240.838 88.5406C241.155 88.6409 241.448 88.7746 241.715 88.9417C241.991 89.1005 242.208 89.3052 242.367 89.5559C242.534 89.8067 242.618 90.1242 242.618 90.5086C242.618 91.0686 242.459 91.5575 242.142 91.9753C241.832 92.3848 241.398 92.6982 240.838 92.9155C240.286 93.1328 239.643 93.2414 238.907 93.2414Z" fill="#4AD295"/>
<path fill-rule="evenodd" clip-rule="evenodd" d="M98.2305 63.6279H116.267L118.404 74.1792H128.928L119.988 34.7837L112.145 43.2852L114.514 54.9758H102.369L98.2305 63.6279Z" fill="#374957"/>
<path d="M101.489 54.9595H114.944V63.6508H93.2988L101.489 54.9595Z" fill="#374957"/>
<path fill-rule="evenodd" clip-rule="evenodd" d="M0.819909 52.84C2.21346 44.8041 6.19915 36.3263 10.864 29.6363L17.9181 35.9904C14.0592 41.5245 11.4617 47.838 10.3089 54.4855C9.15616 61.133 9.47615 67.9525 11.2463 74.4628C13.0165 80.9731 16.1938 87.0157 20.554 92.1641C24.9141 97.3126 30.351 101.442 36.4809 104.26C42.6108 107.078 49.2845 108.516 56.031 108.474C62.7776 108.432 69.4327 106.909 75.5267 104.015C81.6208 101.12 87.0054 96.9228 91.3005 91.72C93.9232 88.5431 96.1007 85.0383 97.7832 81.3035L107.187 83.8232C105.079 88.877 102.232 93.6062 98.7274 97.8512C93.5351 104.141 87.0259 109.214 79.6591 112.714C72.2922 116.213 64.2471 118.053 56.0915 118.105C47.9359 118.156 39.8683 116.417 32.4581 113.01C25.0479 109.603 18.4755 104.612 13.2047 98.3881C7.93386 92.1643 4.093 84.8597 1.95309 76.9897C-0.186823 69.1196 -0.573646 60.8758 0.819909 52.84Z" fill="#4AD295"/>
</svg>
